<svg width="25" height="25" viewBox="0 0 25 25" fill="none" xmlns="http://www.w3.org/2000/svg">
<path d="M17.7083 3.12503C17.9818 2.85144 18.3066 2.63442 18.6641 2.48636C19.0216 2.33829 19.4047 2.26208 19.7916 2.26208C20.1785 2.26208 20.5616 2.33829 20.9191 2.48636C21.2765 2.63442 21.6013 2.85144 21.8749 3.12503C22.1485 3.39862 22.3655 3.72341 22.5136 4.08087C22.6617 4.43833 22.7379 4.82145 22.7379 5.20836C22.7379 5.59527 22.6617 5.9784 22.5136 6.33586C22.3655 6.69331 22.1485 7.01811 21.8749 7.2917L7.81242 21.3542L2.08325 22.9167L3.64575 17.1875L17.7083 3.12503Z" stroke="#07C983" stroke-width="2" stroke-linecap="round" stroke-linejoin="round"/>
</svg>
